<svg width="89.1" height="61.9" viewBox="0 0 89.1 61.9" xmlns="http://www.w3.org/2000/svg"><g id="svgGroup" stroke-linecap="round" fill-rule="evenodd" font-size="9pt" stroke="#000" stroke-width="0.25mm" fill="#000" style="stroke:#000;stroke-width:0.25mm;fill:#000"><path d="M 89.1 61.9 L 79.2 61.9 Q 75 51.6 70.05 41.35 Q 65.1 31.1 59.4 20.8 L 59.4 61.9 L 48.3 61.9 L 48.3 0 L 58.2 0 A 151.149 151.149 0 0 1 61.7 5.793 A 179.986 179.986 0 0 1 63.8 9.55 Q 66.6 14.7 69.25 19.8 Q 71.9 24.9 74.15 29.7 Q 75.697 33 76.937 35.733 A 340.667 340.667 0 0 1 78 38.1 L 78 0 L 89.1 0 L 89.1 61.9 Z M 39.7 61.9 L 0 61.9 L 0 0 L 37.5 0 L 37.5 10.2 L 12.3 10.2 L 12.3 24.1 L 34.2 24.1 L 34.2 34.3 L 12.3 34.3 L 12.3 51.7 L 39.7 51.7 L 39.7 61.9 Z" vector-effect="non-scaling-stroke"/></g></svg>