<svg width="94" height="63.901" viewBox="0 0 94 63.901" xmlns="http://www.w3.org/2000/svg"><g id="svgGroup" stroke-linecap="round" fill-rule="evenodd" font-size="9pt" stroke="#000" stroke-width="0.25mm" fill="#000" style="stroke:#000;stroke-width:0.25mm;fill:#000"><path d="M 79.8 0.701 L 94 0.701 Q 91.6 8.201 89.65 14.051 Q 87.7 19.901 85.95 24.901 Q 84.2 29.901 82.55 34.401 A 300.719 300.719 0 0 1 79.119 43.307 A 326.318 326.318 0 0 1 79 43.601 Q 77.239 48.118 75.507 51.463 A 48.518 48.518 0 0 1 74.45 53.401 A 34.942 34.942 0 0 1 72.589 56.305 Q 71.594 57.692 70.563 58.788 A 18.613 18.613 0 0 1 69.75 59.601 A 16.457 16.457 0 0 1 66.883 61.777 A 13.715 13.715 0 0 1 64.5 62.901 Q 61.7 63.901 58.4 63.901 A 26.766 26.766 0 0 1 54.44 63.617 A 23.156 23.156 0 0 1 52.75 63.301 A 38.624 38.624 0 0 1 49.34 62.355 A 47.133 47.133 0 0 1 47.2 61.601 L 49.7 51.201 Q 51.754 51.947 53.459 52.346 A 22.972 22.972 0 0 0 53.7 52.401 A 17.256 17.256 0 0 0 55.662 52.724 A 13.944 13.944 0 0 0 57.1 52.801 A 7.667 7.667 0 0 0 60.28 52.152 A 7.449 7.449 0 0 0 62.5 50.601 Q 64.7 48.401 66.8 42.801 A 410.293 410.293 0 0 1 57.837 27.068 A 351.257 351.257 0 0 1 54.2 20.151 A 346.174 346.174 0 0 1 50.295 12.283 Q 48.415 8.364 46.856 4.82 A 187.889 187.889 0 0 1 45.1 0.701 L 58.7 0.701 Q 61.6 7.701 64.65 14.601 Q 67.7 21.501 71.5 29.301 Q 72.9 24.901 74.2 20.701 Q 75.5 16.501 76.55 12.801 Q 77.6 9.101 78.4 6.001 Q 79.2 2.901 79.8 0.701 Z M 16.7 41.701 L 12.3 41.701 L 12.3 62.601 L 0 62.601 L 0 1.501 Q 1.8 1.101 4.05 0.801 Q 6.3 0.501 8.6 0.351 Q 10.9 0.201 13.1 0.101 Q 15.3 0.001 17 0.001 Q 24.966 0.001 30.516 2.211 A 20.848 20.848 0 0 1 35.3 4.851 A 15.154 15.154 0 0 1 40.686 12.646 Q 41.521 15.271 41.73 18.489 A 34.144 34.144 0 0 1 41.8 20.701 A 29.557 29.557 0 0 1 41.23 26.713 Q 40.507 30.191 38.864 32.807 A 14.702 14.702 0 0 1 35.25 36.751 A 21.964 21.964 0 0 1 28.476 40.134 Q 23.45 41.701 16.7 41.701 Z M 12.3 11.001 L 12.3 31.001 L 17.3 31.001 A 23.742 23.742 0 0 0 20.548 30.793 Q 24.091 30.303 26.2 28.651 A 7.028 7.028 0 0 0 28.402 25.588 Q 28.874 24.376 29.067 22.852 A 17.978 17.978 0 0 0 29.2 20.601 A 15.486 15.486 0 0 0 28.97 17.83 Q 28.701 16.354 28.117 15.214 A 6.554 6.554 0 0 0 26.25 12.951 A 10.371 10.371 0 0 0 22.581 11.199 Q 21.116 10.81 19.388 10.724 A 20.075 20.075 0 0 0 18.4 10.701 Q 17.558 10.701 16.217 10.73 A 230.385 230.385 0 0 0 15.35 10.751 Q 13.743 10.792 12.713 10.935 A 10.039 10.039 0 0 0 12.3 11.001 Z" vector-effect="non-scaling-stroke"/></g></svg>